<svg width="34" height="34" viewBox="0 0 34 34" fill="none" xmlns="http://www.w3.org/2000/svg">
<circle cx="17" cy="17" r="17" fill="#C0F9FF"/>
<g clip-path="url(#clip0_1309_533)">
<path d="M23.1676 21.6198H22.7103V21.1709C22.7103 20.7578 22.369 20.4229 21.948 20.4229C21.5271 20.4229 21.1858 20.7578 21.1858 21.1709V21.6198H20.7285C20.3076 21.6198 19.9663 21.9547 19.9663 22.3679C19.9663 22.781 20.3076 23.1159 20.7285 23.1159H21.1858V23.5648C21.1858 23.9779 21.5271 24.3129 21.948 24.3129C22.369 24.3129 22.7103 23.9779 22.7103 23.5648V23.1159H23.1676C23.5885 23.1159 23.9298 22.781 23.9298 22.3679C23.9298 21.9547 23.5886 21.6198 23.1676 21.6198Z" fill="#3959E5"/>
<path d="M11.5274 11.9948H11.0701V11.5459C11.0701 11.1328 10.7289 10.7979 10.3079 10.7979C9.88696 10.7979 9.5457 11.1328 9.5457 11.5459V11.9948H9.08838C8.66743 11.9948 8.32617 12.3297 8.32617 12.7429C8.32617 13.156 8.66738 13.491 9.08838 13.491H9.5457V13.9398C9.5457 14.3529 9.88696 14.6879 10.3079 14.6879C10.7289 14.6879 11.0701 14.3529 11.0701 13.9398V13.491H11.5274C11.9484 13.491 12.2896 13.156 12.2896 12.7429C12.2896 12.3297 11.9484 11.9948 11.5274 11.9948Z" fill="#3959E5"/>
<path d="M25.9117 13.192H25.4544V12.7432C25.4544 12.3301 25.1131 11.9951 24.6922 11.9951C24.2712 11.9951 23.93 12.3301 23.93 12.7432V13.192H23.4727C23.0517 13.192 22.7104 13.527 22.7104 13.9401C22.7104 14.3533 23.0517 14.6882 23.4727 14.6882H23.93V15.1371C23.93 15.5502 24.2712 15.8851 24.6922 15.8851C25.1131 15.8851 25.4544 15.5502 25.4544 15.1371V14.6882H25.9117C26.3327 14.6882 26.6739 14.3533 26.6739 13.9401C26.6739 13.527 26.3327 13.192 25.9117 13.192Z" fill="#3959E5"/>
<path d="M23.3296 16.8077L18.6355 15.0946L16.89 10.4874C16.779 10.1943 16.494 10 16.1755 10C15.857 10 15.5721 10.1943 15.4611 10.4873L13.7156 15.0945L9.02144 16.8076C8.7229 16.9166 8.5249 17.1962 8.5249 17.5088C8.5249 17.8214 8.7229 18.1011 9.02144 18.21L13.7156 19.9231L15.4611 24.5303C15.5721 24.8233 15.857 25.0176 16.1755 25.0176C16.494 25.0176 16.779 24.8233 16.89 24.5303L18.6354 19.9231L23.3296 18.21C23.6281 18.1011 23.8261 17.8214 23.8261 17.5088C23.8262 17.1963 23.6282 16.9166 23.3296 16.8077Z" fill="#3959E5"/>
</g>
<defs>
<clipPath id="clip0_1309_533">
<rect width="25" height="15" fill="white" transform="translate(5 10)"/>
</clipPath>
</defs>
</svg>
